<svg width="29" height="28" viewBox="0 0 29 28" fill="none" xmlns="http://www.w3.org/2000/svg">
<g id="basil:save-solid">
<path id="Vector" d="M9.20843 8.86699C9.20843 9.99399 10.1231 10.9087 11.2501 10.9087H18.2501C18.7916 10.9087 19.3109 10.6936 19.6938 10.3107C20.0767 9.92778 20.2918 9.40848 20.2918 8.86699V4.98899C20.2918 4.81166 20.4364 4.66699 20.6138 4.66699C20.6979 4.66684 20.7811 4.68491 20.8577 4.71995C20.9342 4.75499 21.0022 4.80618 21.0571 4.86999L24.5139 8.90083C24.9927 9.45937 25.2428 10.1782 25.2139 10.9133L24.8149 21.1147C24.7854 21.8676 24.4656 22.5799 23.9225 23.1023C23.3795 23.6247 22.6553 23.9167 21.9018 23.917H21.4596C21.3049 23.917 21.1565 23.8555 21.0471 23.7461C20.9377 23.6367 20.8763 23.4884 20.8763 23.3337V17.5003C20.8763 16.9588 20.6612 16.4395 20.2783 16.0566C19.8954 15.6738 19.3761 15.4587 18.8346 15.4587H10.6679C10.3997 15.4585 10.1341 15.5112 9.88626 15.6137C9.63842 15.7163 9.41321 15.8666 9.2235 16.0562C9.03379 16.2458 8.8833 16.471 8.78062 16.7187C8.67795 16.9665 8.6251 17.2321 8.6251 17.5003V23.3337C8.6251 23.4884 8.56364 23.6367 8.45425 23.7461C8.34485 23.8555 8.19648 23.917 8.04177 23.917H7.88193C7.20297 23.9171 6.54727 23.6696 6.03765 23.221C5.52803 22.7724 5.19944 22.1533 5.11343 21.4798C4.53735 16.9788 4.51267 12.4243 5.03993 7.91733L5.10993 7.31066C5.19515 6.58241 5.54488 5.91082 6.09268 5.42345C6.64049 4.93608 7.34821 4.66689 8.08143 4.66699H8.6251C8.77981 4.66699 8.92818 4.72845 9.03758 4.83785C9.14698 4.94724 9.20843 5.09562 9.20843 5.25033V8.86699Z" fill="white"/>
<path id="Vector_2" d="M10.375 23.3337C10.375 23.4884 10.4365 23.6367 10.5459 23.7461C10.6553 23.8555 10.8036 23.917 10.9583 23.917H18.5417C18.6964 23.917 18.8447 23.8555 18.9541 23.7461C19.0635 23.6367 19.125 23.4884 19.125 23.3337V17.5003C19.125 17.423 19.0943 17.3488 19.0396 17.2941C18.9849 17.2394 18.9107 17.2087 18.8333 17.2087H10.6667C10.5893 17.2087 10.5151 17.2394 10.4604 17.2941C10.4057 17.3488 10.375 17.423 10.375 17.5003V23.3337ZM18.5417 5.25033C18.5417 5.09562 18.4802 4.94724 18.3708 4.83785C18.2614 4.72845 18.113 4.66699 17.9583 4.66699H11.5417C11.387 4.66699 11.2386 4.72845 11.1292 4.83785C11.0198 4.94724 10.9583 5.09562 10.9583 5.25033V8.86699C10.9583 9.02799 11.089 9.15866 11.25 9.15866H18.25C18.3274 9.15866 18.4015 9.12793 18.4562 9.07323C18.5109 9.01853 18.5417 8.94435 18.5417 8.86699V5.25033Z" fill="white"/>
</g>
</svg>
