<svg width="29" height="28" viewBox="0 0 29 28" fill="none" xmlns="http://www.w3.org/2000/svg">
<path fill-rule="evenodd" clip-rule="evenodd" d="M3.22412 9.18815C2.59412 10.503 2.81579 12.0418 3.25912 15.1183L3.58346 17.3782C4.15162 21.3308 4.43629 23.306 5.80712 24.4867C7.17796 25.6673 9.18812 25.6673 13.2096 25.6673H15.7903C19.8118 25.6673 21.822 25.6673 23.1928 24.4867C24.5636 23.306 24.8483 21.3308 25.4165 17.3782L25.742 15.1183C26.1853 12.0418 26.407 10.503 25.7758 9.18815C25.1458 7.87332 23.803 7.07298 21.1185 5.47465L19.5026 4.51215C17.0666 3.05965 15.8463 2.33398 14.5 2.33398C13.1536 2.33398 11.9345 3.05965 9.49729 4.51215L7.88146 5.47465C5.19812 7.07298 3.85529 7.87332 3.22412 9.18815ZM14.5 21.8757C14.2679 21.8757 14.0453 21.7835 13.8812 21.6194C13.7171 21.4553 13.625 21.2327 13.625 21.0007V17.5007C13.625 17.2686 13.7171 17.046 13.8812 16.8819C14.0453 16.7178 14.2679 16.6257 14.5 16.6257C14.732 16.6257 14.9546 16.7178 15.1187 16.8819C15.2828 17.046 15.375 17.2686 15.375 17.5007V21.0007C15.375 21.2327 15.2828 21.4553 15.1187 21.6194C14.9546 21.7835 14.732 21.8757 14.5 21.8757Z" fill="white"/>
</svg>
