<svg width="20" height="21" viewBox="0 0 20 21" fill="none" xmlns="http://www.w3.org/2000/svg">
<path d="M9.52835 10.6243C10.0483 11.1335 10.4238 11.7717 10.6163 12.4736C10.8089 13.1755 10.8116 13.916 10.6242 14.6193C10.4352 15.3236 10.0634 15.9654 9.54642 16.4796C9.02945 16.9939 8.3857 17.3623 7.68043 17.5476C6.97419 17.7345 6.23119 17.7322 5.52611 17.541C4.82104 17.3497 4.17873 16.9762 3.66376 16.458C2.90872 15.6819 2.49052 14.6391 2.50004 13.5563C2.50956 12.4736 2.94603 11.4383 3.7146 10.6755C5.31418 9.08386 7.90043 9.06178 9.52751 10.6251L9.52835 10.6243Z" fill="white" stroke="white" stroke-width="2" stroke-linejoin="round"/>
<path d="M9.58337 10.5001L16.6667 3.41675" stroke="white" stroke-width="2" stroke-linecap="round" stroke-linejoin="round"/>
<path d="M12.6271 7.54175L14.8892 9.79175L17.5279 7.16675L15.2662 4.91675L12.6271 7.54175Z" fill="white" stroke="white" stroke-width="2" stroke-linejoin="round"/>
</svg>
