<svg width="52" height="48" viewBox="0 0 52 48" fill="none" xmlns="http://www.w3.org/2000/svg">
<path d="M24.8224 0H27.0611C29.6038 0.521669 31.6007 1.33354 33.0517 2.43561C39.9595 7.68512 39.6434 17.6659 32.4039 22.7444C32.1724 22.9068 31.9859 22.8654 31.8442 22.6201L28.6054 17.0804C28.5588 17.0012 28.542 16.9078 28.5582 16.8167C28.5743 16.7256 28.6222 16.6428 28.6935 16.5829C30.4554 15.1077 31.1567 13.3838 30.7974 11.4111C29.8284 6.1253 22.0863 5.79364 20.8011 11.1364C20.2967 13.2335 20.9479 15.049 22.7548 16.5829C22.8356 16.6506 22.8893 16.7456 22.9064 16.851C22.9235 16.9563 22.9028 17.0651 22.848 17.1581L19.5677 22.6563C19.5421 22.699 19.5078 22.7358 19.4672 22.7644C19.4265 22.793 19.3803 22.8128 19.3315 22.8226C19.2827 22.8323 19.2325 22.8318 19.1839 22.821C19.1354 22.8102 19.0896 22.7895 19.0495 22.76C9.3019 15.5724 12.9346 1.64792 24.8224 0Z" fill="#FF2B44"/>
<path d="M0 36.5859V34.6737C0.207286 33.772 0.461211 32.891 0.761776 32.0308C2.26114 27.7261 5.02495 25.0159 9.05321 23.9C12.121 23.0449 15.2614 23.3507 18.065 24.781C18.1075 24.8025 18.1451 24.8325 18.1755 24.8692C18.206 24.9059 18.2287 24.9485 18.2423 24.9946C18.2558 25.0406 18.26 25.089 18.2544 25.1369C18.2489 25.1848 18.2338 25.2312 18.2101 25.2733L14.9246 30.8337C14.8175 31.0099 14.6689 31.0652 14.4789 30.9995C12.2333 30.2188 10.3349 30.5953 8.78374 32.1292C6.86635 34.0259 6.80934 36.9901 8.54018 39.0008C11.7376 42.7267 17.2462 40.3274 17.5519 35.8086C17.5692 35.546 17.7108 35.413 17.9769 35.4095L24.3872 35.394C24.5945 35.394 24.7033 35.4976 24.7137 35.7049C24.9158 41.6592 20.3296 46.489 14.8676 47.7068C7.55557 49.3288 0.994972 44.0274 0 36.5859Z" fill="#8BDA67"/>
<path d="M51.8215 34.3627V36.788C51.4588 38.5015 51.1893 39.5708 51.0131 39.9957C48.6915 45.6235 43.4472 48.6706 37.4048 47.7223C31.4661 46.7895 27.1079 41.5711 27.2167 35.5235C27.2927 31.2915 29.1617 27.8695 32.8238 25.2577C32.8641 25.2288 32.9099 25.2085 32.9583 25.1981C33.0066 25.1876 33.0565 25.1873 33.1048 25.197C33.153 25.2068 33.1986 25.2264 33.2385 25.2547C33.2785 25.283 33.3119 25.3193 33.3368 25.3613L36.6741 30.9581C36.7185 31.0303 36.7346 31.1165 36.7193 31.2005C36.704 31.2845 36.6585 31.3605 36.5912 31.4141C34.2282 33.3004 33.4975 36.4771 35.5289 38.8505C40.3431 44.4731 48.4894 36.6688 42.5662 31.5074C42.2968 31.2725 42.2536 30.9995 42.4367 30.6886L45.7118 25.2422C45.7913 25.104 45.8984 25.0815 46.0331 25.1748C49.2978 27.4135 51.2273 30.4761 51.8215 34.3627Z" fill="#128EFE"/>
</svg>
