<svg width="100" height="100" viewBox="0 0 100 100" fill="none" xmlns="http://www.w3.org/2000/svg">
<circle cx="50" cy="50" r="50" fill="url(#paint0_linear_181_1002)"/>
<path fill-rule="evenodd" clip-rule="evenodd" d="M70.0761 69.5756C70.347 69.3045 70.4991 68.9369 70.4991 68.5536C70.4991 68.1703 70.347 67.8028 70.0761 67.5316L62.7441 60.1996C65.8156 56.6 67.3746 51.9512 67.0944 47.2276C66.8142 42.5039 64.7165 38.0721 61.241 34.8608C57.7655 31.6495 53.1819 29.9082 48.4509 30.0016C43.7198 30.0951 39.2086 32.0161 35.8626 35.3621C32.5166 38.7081 30.5956 43.2193 30.5021 47.9504C30.4087 52.6814 32.15 57.265 35.3613 60.7405C38.5725 64.216 43.0044 66.3137 47.7281 66.5939C52.4517 66.8741 57.1005 65.3151 60.7001 62.2436L68.0321 69.5756C68.3032 69.8465 68.6708 69.9987 69.0541 69.9987C69.4374 69.9987 69.805 69.8465 70.0761 69.5756Z" fill="white"/>
<defs>
<linearGradient id="paint0_linear_181_1002" x1="50.1385" y1="-134.906" x2="50.1386" y2="232.075" gradientUnits="userSpaceOnUse">
<stop stop-color="#128EFE"/>
<stop offset="1" stop-color="#063057"/>
</linearGradient>
</defs>
</svg>
