<svg width="48" height="48" viewBox="0 0 48 48" fill="none" xmlns="http://www.w3.org/2000/svg">
<path fill-rule="evenodd" clip-rule="evenodd" d="M6 20.834C6 14.438 6 11.24 6.756 10.164C7.51 9.09 10.516 8.06 16.53 6.002L17.676 5.61C20.81 4.536 22.376 4 24 4C25.622 4 27.19 4.536 30.324 5.61L31.47 6.002C37.484 8.06 40.49 9.09 41.244 10.164C42 11.24 42 14.44 42 20.834V23.982C42 35.258 33.522 40.732 28.202 43.054C26.76 43.684 26.04 44 24 44C21.96 44 21.24 43.684 19.798 43.054C14.478 40.73 6 35.26 6 23.982V20.834ZM24 14.5C24.3978 14.5 24.7794 14.658 25.0607 14.9393C25.342 15.2206 25.5 15.6022 25.5 16V24C25.5 24.3978 25.342 24.7794 25.0607 25.0607C24.7794 25.342 24.3978 25.5 24 25.5C23.6022 25.5 23.2206 25.342 22.9393 25.0607C22.658 24.7794 22.5 24.3978 22.5 24V16C22.5 15.6022 22.658 15.2206 22.9393 14.9393C23.2206 14.658 23.6022 14.5 24 14.5ZM24 32C24.5304 32 25.0391 31.7893 25.4142 31.4142C25.7893 31.0391 26 30.5304 26 30C26 29.4696 25.7893 28.9609 25.4142 28.5858C25.0391 28.2107 24.5304 28 24 28C23.4696 28 22.9609 28.2107 22.5858 28.5858C22.2107 28.9609 22 29.4696 22 30C22 30.5304 22.2107 31.0391 22.5858 31.4142C22.9609 31.7893 23.4696 32 24 32Z" fill="white"/>
</svg>
