<svg width="22" height="22" viewBox="0 0 22 22" fill="none" xmlns="http://www.w3.org/2000/svg">
<g id="solar:camera-bold">
<path id="Vector" fill-rule="evenodd" clip-rule="evenodd" d="M8.96321 19.25H13.0369C15.8978 19.25 17.3287 19.25 18.3563 18.5763C18.7997 18.2857 19.1815 17.9107 19.4801 17.4726C20.1667 16.4643 20.1667 15.059 20.1667 12.2504C20.1667 9.44079 20.1667 8.03646 19.4801 7.02813C19.1816 6.59006 18.7997 6.21504 18.3563 5.92446C17.6963 5.49088 16.8695 5.33596 15.6035 5.28096C14.9995 5.28096 14.4797 4.83179 14.3615 4.24971C14.2711 3.82334 14.0363 3.44124 13.6967 3.168C13.3572 2.89475 12.9337 2.74712 12.4979 2.75004H9.50221C8.59654 2.75004 7.81646 3.37796 7.63862 4.24971C7.52037 4.83179 7.00062 5.28096 6.39654 5.28096C5.13154 5.33596 4.30471 5.49179 3.64379 5.92446C3.20069 6.2151 2.81913 6.59012 2.52087 7.02813C1.83337 8.03646 1.83337 9.44079 1.83337 12.2504C1.83337 15.059 1.83337 16.4634 2.51996 17.4726C2.81696 17.909 3.19829 18.2839 3.64379 18.5763C4.67137 19.25 6.10229 19.25 8.96321 19.25ZM11 8.50029C8.89079 8.50029 7.18029 10.1787 7.18029 12.2495C7.18029 14.3211 8.89079 16.0005 11 16.0005C13.1093 16.0005 14.8198 14.3211 14.8198 12.2504C14.8198 10.1787 13.1093 8.50029 11 8.50029ZM11 9.99996C9.73504 9.99996 8.70837 11.0074 8.70837 12.2504C8.70837 13.4925 9.73504 14.4999 11 14.4999C12.265 14.4999 13.2917 13.4925 13.2917 12.2504C13.2917 11.0074 12.265 9.99996 11 9.99996ZM15.3285 9.25013C15.3285 8.83579 15.6705 8.50029 16.093 8.50029H17.1105C17.5322 8.50029 17.875 8.83579 17.875 9.25013C17.8731 9.45078 17.7916 9.64246 17.6484 9.78306C17.5052 9.92366 17.3121 10.0017 17.1115 9.99996H16.093C15.9936 10.0009 15.895 9.9823 15.8027 9.94514C15.7105 9.90798 15.6265 9.85302 15.5555 9.78339C15.4845 9.71376 15.4279 9.63083 15.389 9.53933C15.35 9.44783 15.3295 9.34956 15.3285 9.25013Z" fill="white"/>
</g>
</svg>
