<svg width="20" height="21" viewBox="0 0 20 21" fill="none" xmlns="http://www.w3.org/2000/svg">
<path d="M2.72913 13.2466C2.02079 12.3266 1.66663 11.8658 1.66663 10.4999C1.66663 9.13325 2.02079 8.67409 2.72913 7.75325C4.14329 5.91659 6.51496 3.83325 9.99996 3.83325C13.485 3.83325 15.8566 5.91659 17.2708 7.75325C17.9791 8.67492 18.3333 9.13409 18.3333 10.4999C18.3333 11.8666 17.9791 12.3258 17.2708 13.2466C15.8566 15.0833 13.485 17.1666 9.99996 17.1666C6.51496 17.1666 4.14329 15.0833 2.72913 13.2466Z" stroke="white" stroke-width="1.5"/>
<path d="M12.5 10.5C12.5 11.163 12.2366 11.7989 11.7678 12.2678C11.2989 12.7366 10.663 13 10 13C9.33696 13 8.70107 12.7366 8.23223 12.2678C7.76339 11.7989 7.5 11.163 7.5 10.5C7.5 9.83696 7.76339 9.20107 8.23223 8.73223C8.70107 8.26339 9.33696 8 10 8C10.663 8 11.2989 8.26339 11.7678 8.73223C12.2366 9.20107 12.5 9.83696 12.5 10.5Z" stroke="white" stroke-width="1.5"/>
</svg>
