<svg width="105" height="104" viewBox="0 0 105 104" fill="none" xmlns="http://www.w3.org/2000/svg">
<path d="M83.125 43.3334C81.9647 43.3334 80.8519 43.7899 80.0314 44.6026C79.2109 45.4152 78.75 46.5174 78.75 47.6667V62.3134L72.275 55.9C69.9887 53.6534 66.8987 52.3927 63.6781 52.3927C60.4576 52.3927 57.3675 53.6534 55.0812 55.9L52.0188 58.9767L41.1688 48.1867C38.8825 45.94 35.7924 44.6794 32.5719 44.6794C29.3513 44.6794 26.2613 45.94 23.975 48.1867L17.5 54.6433V30.3334C17.5 29.1841 17.9609 28.0819 18.7814 27.2692C19.6019 26.4566 20.7147 26 21.875 26H56.875C58.0353 26 59.1481 25.5435 59.9686 24.7308C60.7891 23.9182 61.25 22.816 61.25 21.6667C61.25 20.5174 60.7891 19.4152 59.9686 18.6026C59.1481 17.7899 58.0353 17.3334 56.875 17.3334H21.875C18.394 17.3334 15.0556 18.703 12.5942 21.141C10.1328 23.5789 8.75 26.8855 8.75 30.3334V83.2867C8.76153 86.4781 10.0466 89.5356 12.325 91.7924C14.6035 94.0491 17.6904 95.3219 20.9125 95.3333H75.3375C76.5231 95.324 77.7013 95.1489 78.8375 94.8133C81.3638 94.1115 83.5878 92.6081 85.1684 90.5338C86.749 88.4594 87.5988 85.9288 87.5875 83.33V47.6667C87.5876 47.0903 87.4716 46.5196 87.2463 45.9881C87.021 45.4567 86.6909 44.975 86.2753 44.5715C85.8597 44.168 85.3671 43.8506 84.8261 43.638C84.2852 43.4254 83.7069 43.3218 83.125 43.3334ZM21.875 86.6667C20.7147 86.6667 19.6019 86.2101 18.7814 85.3975C17.9609 84.5848 17.5 83.4826 17.5 82.3334V66.8633L30.1437 54.34C30.7832 53.7102 31.6483 53.3567 32.55 53.3567C33.4517 53.3567 34.3168 53.7102 34.9562 54.34L67.6375 86.6667H21.875ZM78.75 82.3334C78.7219 83.1724 78.4483 83.9854 77.9625 84.6734L58.1875 65L61.2938 61.9667C61.6074 61.6496 61.9818 61.3977 62.395 61.2257C62.8082 61.0538 63.2518 60.9652 63.7 60.9652C64.1482 60.9652 64.5919 61.0538 65.005 61.2257C65.4182 61.3977 65.7926 61.6496 66.1062 61.9667L78.75 74.5767V82.3334ZM91.875 17.3334H87.5V13C87.5 11.8507 87.0391 10.7485 86.2186 9.93589C85.3981 9.12323 84.2853 8.66669 83.125 8.66669C81.9647 8.66669 80.8519 9.12323 80.0314 9.93589C79.2109 10.7485 78.75 11.8507 78.75 13V17.3334H74.375C73.2147 17.3334 72.1019 17.7899 71.2814 18.6026C70.4609 19.4152 70 20.5174 70 21.6667C70 22.816 70.4609 23.9182 71.2814 24.7308C72.1019 25.5435 73.2147 26 74.375 26H78.75V30.3334C78.75 31.4826 79.2109 32.5848 80.0314 33.3975C80.8519 34.2101 81.9647 34.6667 83.125 34.6667C84.2853 34.6667 85.3981 34.2101 86.2186 33.3975C87.0391 32.5848 87.5 31.4826 87.5 30.3334V26H91.875C93.0353 26 94.1481 25.5435 94.9686 24.7308C95.7891 23.9182 96.25 22.816 96.25 21.6667C96.25 20.5174 95.7891 19.4152 94.9686 18.6026C94.1481 17.7899 93.0353 17.3334 91.875 17.3334Z" fill="white"/>
</svg>
