<svg width="49" height="48" viewBox="0 0 49 48" fill="none" xmlns="http://www.w3.org/2000/svg">
<g id="solar:check-circle-bold">
<path id="Vector" fill-rule="evenodd" clip-rule="evenodd" d="M44.5 24C44.5 35.046 35.546 44 24.5 44C13.454 44 4.5 35.046 4.5 24C4.5 12.954 13.454 4 24.5 4C35.546 4 44.5 12.954 44.5 24ZM32.56 17.94C32.8409 18.2213 32.9987 18.6025 32.9987 19C32.9987 19.3975 32.8409 19.7787 32.56 20.06L22.56 30.06C22.2787 30.3409 21.8975 30.4987 21.5 30.4987C21.1025 30.4987 20.7213 30.3409 20.44 30.06L16.44 26.06C16.2926 25.9227 16.1744 25.7571 16.0924 25.5731C16.0105 25.3891 15.9664 25.1905 15.9628 24.989C15.9593 24.7876 15.9963 24.5876 16.0718 24.4008C16.1472 24.214 16.2595 24.0444 16.4019 23.9019C16.5444 23.7595 16.714 23.6472 16.9008 23.5718C17.0876 23.4963 17.2876 23.4593 17.489 23.4628C17.6904 23.4664 17.8891 23.5105 18.0731 23.5924C18.2571 23.6744 18.4227 23.7926 18.56 23.94L21.5 26.88L25.97 22.41L30.44 17.94C30.7213 17.6591 31.1025 17.5013 31.5 17.5013C31.8975 17.5013 32.2788 17.6591 32.56 17.94Z" fill="white"/>
</g>
</svg>
