<svg width="20" height="20" viewBox="0 0 20 20" fill="none" xmlns="http://www.w3.org/2000/svg">
<g id="icon-park-solid:phone-telephone">
<path id="Vector" d="M7.08169 3.20239C7.23041 3.20239 7.37641 3.24219 7.50456 3.31766C7.6327 3.39312 7.73832 3.50151 7.81044 3.63156L8.82961 5.46739C8.89532 5.58581 8.93119 5.71847 8.93409 5.85387C8.93699 5.98927 8.90685 6.12335 8.84628 6.24448L7.86461 8.20864C7.86461 8.20864 8.14919 9.67156 9.34003 10.8628C10.5313 12.0536 11.9892 12.3336 11.9892 12.3336L13.9529 11.3516C14.0741 11.2909 14.2083 11.2607 14.3438 11.2636C14.4792 11.2665 14.612 11.3024 14.7304 11.3682L16.5721 12.3924C16.7019 12.4646 16.81 12.5703 16.8852 12.6983C16.9604 12.8264 17.0001 12.9722 17 13.1207V15.2345C17 16.3111 16 17.0886 14.98 16.7445C12.885 16.0374 9.63294 14.6916 7.57169 12.6303C5.51086 10.5691 4.16461 7.31739 3.45794 5.22198C3.11378 4.20239 3.89128 3.20239 4.96794 3.20239H7.08169Z" fill="white" stroke="white" stroke-linejoin="round"/>
</g>
</svg>
